<svg width="28" height="26" viewBox="0 0 28 26" fill="none" xmlns="http://www.w3.org/2000/svg">
<path d="M0 8.55338C0 14.5861 5.03323 20.5196 12.9849 25.6176C13.281 25.8017 13.7039 26 14 26C14.2961 26 14.719 25.8017 15.0292 25.6176C22.9668 20.5196 28 14.5861 28 8.55338C28 3.5403 24.574 0 20.006 0C17.3978 0 15.283 1.24619 14 3.15795C12.7452 1.26035 10.6022 0 7.99396 0C3.42598 0 0 3.5403 0 8.55338ZM2.26989 8.55338C2.26989 4.78649 4.69486 2.27996 7.96576 2.27996C10.6163 2.27996 12.139 3.93682 13.0413 5.35294C13.422 5.91939 13.6616 6.07516 14 6.07516C14.3384 6.07516 14.5498 5.90523 14.9587 5.35294C15.9315 3.96514 17.3978 2.27996 20.0342 2.27996C23.3051 2.27996 25.7301 4.78649 25.7301 8.55338C25.7301 13.8214 20.1893 19.5 14.2961 23.4368C14.1551 23.5359 14.0564 23.6068 14 23.6068C13.9436 23.6068 13.8449 23.5359 13.718 23.4368C7.81067 19.5 2.26989 13.8214 2.26989 8.55338Z" fill="black"/>
</svg>
